<svg width="1280" height="1280" viewBox="0 0 1280 1280" fill="none" xmlns="http://www.w3.org/2000/svg">
<rect width="1280" height="1280" fill="black"/>
<rect x="301.176" y="73.7448" width="75.2941" height="75.2941" fill="#14FF00"/>
<rect x="451.764" y="73.7448" width="75.2941" height="75.2941" fill="#14FF00"/>
<rect x="602.353" y="73.7448" width="75.2941" height="75.2941" fill="#14FF00"/>
<rect x="752.941" y="73.7448" width="75.2941" height="75.2941" fill="#14FF00"/>
<rect x="376.471" y="149.039" width="75.2941" height="75.2941" fill="#14FF00"/>
<rect x="677.647" y="149.039" width="75.2941" height="75.2941" fill="#14FF00"/>
<rect x="828.235" y="149.039" width="75.2941" height="75.2941" fill="#14FF00"/>
<rect x="978.823" y="149.039" width="75.2941" height="75.2941" fill="#14FF00"/>
<rect x="150.588" y="224.333" width="75.2941" height="75.2941" fill="#14FF00"/>
<rect x="301.176" y="224.333" width="75.2941" height="75.2941" fill="#14FF00"/>
<rect x="451.764" y="224.333" width="75.2941" height="75.2941" fill="#14FF00"/>
<rect x="602.353" y="224.333" width="75.2941" height="75.2941" fill="#14FF00"/>
<rect x="752.941" y="224.333" width="75.2941" height="75.2941" fill="#14FF00"/>
<rect x="903.529" y="224.333" width="75.2941" height="75.2941" fill="#14FF00"/>
<rect x="1054.12" y="224.333" width="75.2941" height="75.2941" fill="#14FF00"/>
<rect x="527.059" y="299.627" width="75.2941" height="75.2941" fill="#14FF00"/>
<rect x="677.647" y="299.627" width="75.2941" height="75.2941" fill="#14FF00"/>
<rect x="828.235" y="299.627" width="75.2941" height="75.2941" fill="#14FF00"/>
<rect x="978.823" y="299.627" width="75.2941" height="75.2941" fill="#14FF00"/>
<rect x="1129.41" y="299.627" width="75.2941" height="75.2941" fill="#14FF00"/>
<rect x="150.588" y="374.921" width="75.2941" height="75.2941" fill="#14FF00"/>
<rect x="301.176" y="374.921" width="75.2941" height="75.2941" fill="#14FF00"/>
<rect x="451.764" y="374.921" width="75.2941" height="75.2941" fill="#14FF00"/>
<rect x="602.353" y="374.921" width="75.2941" height="75.2941" fill="#14FF00"/>
<rect x="752.941" y="374.921" width="75.2941" height="75.2941" fill="#14FF00"/>
<rect x="903.529" y="374.921" width="75.2941" height="75.2941" fill="#14FF00"/>
<rect x="1054.12" y="374.921" width="75.2941" height="75.2941" fill="#14FF00"/>
<rect x="376.471" y="450.216" width="75.2941" height="75.2941" fill="#14FF00"/>
<rect x="677.647" y="450.216" width="75.2941" height="75.2941" fill="#14FF00"/>
<rect x="752.941" y="450.216" width="75.2941" height="75.2941" fill="#14FF00"/>
<rect x="828.235" y="450.216" width="75.2941" height="75.2941" fill="#14FF00"/>
<rect x="978.823" y="450.216" width="75.2941" height="75.2941" fill="#14FF00"/>
<rect y="525.51" width="75.2941" height="75.2941" fill="#14FF00"/>
<rect x="150.588" y="525.51" width="75.2941" height="75.2941" fill="#14FF00"/>
<rect x="301.176" y="525.51" width="75.2941" height="75.2941" fill="#14FF00"/>
<rect x="451.764" y="525.51" width="75.2941" height="75.2941" fill="#14FF00"/>
<rect x="602.353" y="525.51" width="75.2941" height="75.2941" fill="#14FF00"/>
<rect x="752.941" y="525.51" width="75.2941" height="75.2941" fill="#14FF00"/>
<rect x="903.529" y="525.51" width="75.2941" height="75.2941" fill="#14FF00"/>
<rect x="1054.12" y="525.51" width="75.2941" height="75.2941" fill="#14FF00"/>
<rect x="1204.71" y="525.51" width="75.2941" height="75.2941" fill="#14FF00"/>
<rect x="527.059" y="600.804" width="75.2941" height="75.2941" fill="#14FF00"/>
<rect x="677.647" y="600.804" width="75.2941" height="75.2941" fill="#14FF00"/>
<rect x="828.235" y="600.804" width="75.2941" height="75.2941" fill="#14FF00"/>
<rect x="978.823" y="600.804" width="75.2941" height="75.2941" fill="#14FF00"/>
<rect x="1129.41" y="600.804" width="75.2941" height="75.2941" fill="#14FF00"/>
<rect x="150.588" y="676.098" width="75.2941" height="75.2941" fill="#14FF00"/>
<rect x="301.176" y="676.098" width="75.2941" height="75.2941" fill="#14FF00"/>
<rect x="451.764" y="676.098" width="75.2941" height="75.2941" fill="#14FF00"/>
<rect x="602.353" y="676.098" width="75.2941" height="75.2941" fill="#14FF00"/>
<rect x="752.941" y="676.098" width="75.2941" height="75.2941" fill="#14FF00"/>
<rect x="903.529" y="676.098" width="75.2941" height="75.2941" fill="#14FF00"/>
<rect x="1054.12" y="676.098" width="75.2941" height="75.2941" fill="#14FF00"/>
<rect x="1204.71" y="676.098" width="75.2941" height="75.2941" fill="#14FF00"/>
<rect x="677.647" y="751.392" width="75.2941" height="75.2941" fill="#14FF00"/>
<rect x="978.823" y="751.392" width="75.2941" height="75.2941" fill="#14FF00"/>
<rect x="301.176" y="826.686" width="75.2941" height="75.2941" fill="#14FF00"/>
<rect x="451.764" y="826.686" width="75.2941" height="75.2941" fill="#14FF00"/>
<rect x="602.353" y="826.686" width="75.2941" height="75.2941" fill="#14FF00"/>
<rect x="752.941" y="826.686" width="75.2941" height="75.2941" fill="#14FF00"/>
<rect x="903.529" y="826.686" width="75.2941" height="75.2941" fill="#14FF00"/>
<rect x="1054.12" y="826.686" width="75.2941" height="75.2941" fill="#14FF00"/>
<rect x="1204.71" y="826.686" width="75.2941" height="75.2941" fill="#14FF00"/>
<rect x="150.588" y="977.274" width="75.2941" height="75.2941" fill="#14FF00"/>
<rect x="451.764" y="977.274" width="75.2941" height="75.2941" fill="#14FF00"/>
<rect x="752.941" y="977.274" width="75.2941" height="75.2941" fill="#14FF00"/>
<rect x="1054.12" y="977.274" width="75.2941" height="75.2941" fill="#14FF00"/>
<rect x="602.353" y="1127.86" width="75.2941" height="75.2941" fill="#14FF00"/>
<rect x="903.529" y="1127.86" width="75.2941" height="75.2941" fill="#14FF00"/>
</svg>
